<svg width="181" height="47" viewBox="0 0 181 47" fill="none" xmlns="http://www.w3.org/2000/svg">
<path d="M0 21.0959V22.9892H3.39578V33.1164H5.82992V22.9892H9.28581V21.0959H0Z" fill="white"/>
<path d="M10.8203 21.0957H13.2244V25.964H18.0626V21.0957H20.4367V33.1162H18.0626V27.8572H13.2244V33.1162H10.8203V21.0957Z" fill="white"/>
<path d="M23.2578 21.0957H30.3499V22.9889H25.692V25.964H29.9592V27.8572H25.692V31.2229H30.3799V33.1162H23.2578V21.0957Z" fill="white"/>
<path d="M33.7759 29.6C34.2867 29.8404 34.9178 30.0508 35.639 30.201C36.3603 30.4114 37.1116 30.4715 37.9229 30.4715C38.4038 30.4715 38.7944 30.3813 39.155 30.2611C39.5156 30.1409 39.696 29.8704 39.696 29.4197C39.696 29.0591 39.5457 28.7886 39.2151 28.5783C38.8846 28.3679 38.4939 28.2176 38.0732 28.0974C37.5924 27.9772 37.1116 27.827 36.5706 27.7068C36.0297 27.5866 35.5489 27.3462 35.0681 27.1057C34.5873 26.8353 34.1966 26.4747 33.9261 25.9938C33.5956 25.513 33.4453 24.912 33.4453 24.1607C33.4453 23.4094 33.5956 22.8084 33.9261 22.2675C34.2567 21.7566 34.6774 21.3059 35.1883 21.0054C35.6991 20.6748 36.3002 20.4043 36.9312 20.2541C37.5623 20.1038 38.2535 20.0137 38.8846 20.0137C39.6358 20.0137 40.4172 20.0437 41.1685 20.1639C41.9197 20.2841 42.671 20.4945 43.3922 20.765L43.0316 23.8302C42.5508 23.5597 42.0099 23.3494 41.3788 23.1991C40.7477 23.0488 40.1467 22.9587 39.6058 22.9587C39.3654 22.9587 39.125 22.9587 38.8846 22.9887C38.6442 23.0188 38.4338 23.0789 38.2535 23.1089C38.0431 23.1991 37.8929 23.2592 37.7727 23.3794C37.6525 23.4996 37.5623 23.6499 37.5623 23.8302C37.5623 24.1607 37.7126 24.3711 38.0431 24.5815C38.3737 24.7317 38.7644 24.912 39.2752 25.0322C39.7561 25.1524 40.2669 25.2726 40.8679 25.4229C41.4089 25.5731 41.9798 25.7835 42.4607 26.054C42.9415 26.3244 43.3321 26.7151 43.6928 27.1959C44.0233 27.6767 44.1736 28.3378 44.1736 29.1492C44.1736 29.9907 44.0233 30.6818 43.6627 31.2528C43.3021 31.8238 42.8814 32.2445 42.2804 32.5751C41.7394 32.9056 41.0783 33.116 40.3871 33.2362C39.696 33.3564 38.9747 33.4465 38.2535 33.4465C37.2618 33.4465 36.3903 33.4165 35.6691 33.2963C34.9479 33.1761 34.2567 33.0559 33.5956 32.8155L33.7759 29.6Z" fill="white"/>
<path d="M45.7344 20.3454H49.7913V22.6894H49.8213C50.2721 21.7278 50.9032 21.0667 51.7146 20.676C52.556 20.2252 53.4575 20.0449 54.4793 20.0449C55.3808 20.0449 56.2222 20.2553 56.8834 20.6459C57.6046 21.0366 58.1154 21.6677 58.4761 22.5091C58.9869 21.6376 59.6781 21.0066 60.4594 20.6459C61.2408 20.2553 62.1123 20.0449 63.0438 20.0449C63.9454 20.0449 64.6967 20.1651 65.2977 20.4356C65.8987 20.676 66.3795 21.0667 66.68 21.5475C67.0106 22.0283 67.2209 22.6293 67.3412 23.2904C67.4614 23.9516 67.5515 24.763 67.5515 25.6344V33.1773H63.0739V26.3256C63.0739 25.5743 62.9236 24.9733 62.6231 24.4925C62.3527 24.0117 61.9019 23.7713 61.2708 23.7713C60.4895 23.7713 59.8885 24.1018 59.4377 24.7329C58.9869 25.364 58.7766 26.3857 58.7766 27.7981V33.1773H54.3891V26.3256C54.3891 25.5743 54.2389 24.9733 53.9383 24.4925C53.6679 24.0117 53.2171 23.7713 52.586 23.7713C51.8047 23.7713 51.2037 24.1018 50.7529 24.7329C50.3021 25.364 50.0918 26.3857 50.0918 27.7981V33.1773H45.7344V20.3454Z" fill="white"/>
<path d="M73.2017 29.0911C73.2017 29.5418 73.352 29.8724 73.7126 30.1128C74.0732 30.3532 74.4939 30.4734 75.0349 30.4734C75.4255 30.4734 75.8162 30.3833 76.1468 30.233C76.5074 30.0828 76.7778 29.8423 77.0182 29.5719C77.2587 29.3014 77.4089 28.9709 77.5592 28.6103C77.6794 28.2496 77.7695 27.889 77.7695 27.4984C77.4991 27.4984 77.1685 27.4683 76.868 27.4683C76.5675 27.4683 76.2369 27.4383 75.9063 27.4383C75.1551 27.4383 74.524 27.5585 74.0131 27.8289C73.4722 28.0092 73.2017 28.46 73.2017 29.0911ZM78.07 33.1179C78.07 32.7573 78.04 32.4568 77.9799 32.0962C77.9498 31.7656 77.9498 31.4351 77.9498 31.1045H77.9198C77.4089 31.8858 76.8379 32.4869 76.2069 32.8475C75.5758 33.2081 74.7945 33.3884 73.8629 33.3884C73.2318 33.3884 72.6308 33.2982 72.0297 33.148C71.4888 32.9977 70.9479 32.7573 70.5272 32.3967C70.0764 32.0661 69.7459 31.6454 69.4453 31.1346C69.1749 30.6237 69.0547 30.0227 69.0547 29.3615C69.0547 28.3698 69.2951 27.6186 69.7759 27.0175C70.2567 26.4766 70.7977 26.0259 71.4888 25.6953C72.15 25.3647 72.8712 25.1844 73.6826 25.0943C74.4338 25.0041 75.095 24.9741 75.696 24.9741C76.0566 24.9741 76.4172 24.9741 76.8079 25.0041C77.1685 25.0342 77.469 25.0943 77.7695 25.1243C77.7695 24.6736 77.6794 24.343 77.5291 24.0425C77.3789 23.772 77.1685 23.5316 76.898 23.3814C76.6276 23.2311 76.297 23.1109 75.9965 23.0207C75.6359 22.9306 75.2753 22.9306 74.8846 22.9306C74.1634 22.9306 73.4722 23.0207 72.781 23.171C72.1199 23.3213 71.4287 23.5617 70.7977 23.9223L70.7075 20.9472C71.4888 20.6166 72.3002 20.4063 73.1116 20.226C73.953 20.0757 74.8546 20.0156 75.7561 20.0156C76.5975 20.0156 77.3488 20.1058 78.1001 20.2861C78.8514 20.4964 79.4824 20.7669 80.0534 21.1876C80.5943 21.5783 81.0451 22.1493 81.3757 22.8104C81.7062 23.4715 81.8565 24.3129 81.8565 25.3046V30.0527C81.8565 30.5636 81.8565 31.0744 81.8865 31.5553C81.9166 32.0661 82.0067 32.547 82.0969 33.0578H78.1001V33.1179H78.07Z" fill="white"/>
<path d="M112.179 25.5138C112.179 24.7625 111.969 24.1615 111.638 23.6206C111.278 23.1097 110.647 22.8392 109.745 22.8392C108.964 22.8392 108.363 23.1097 107.972 23.6206C107.581 24.1314 107.371 24.7625 107.311 25.5138H112.179ZM107.341 28.008C107.461 28.8795 107.852 29.5106 108.483 29.9013C109.114 30.2619 109.985 30.4422 111.067 30.4422C111.668 30.4422 112.299 30.352 112.96 30.2018C113.622 30.0515 114.313 29.8111 114.944 29.4505V32.5758C114.223 32.8463 113.471 33.0566 112.69 33.1768C111.909 33.297 111.097 33.3872 110.286 33.3872C109.204 33.3872 108.212 33.2369 107.341 32.9364C106.439 32.6059 105.628 32.1851 104.997 31.6142C104.336 31.0733 103.795 30.352 103.404 29.5106C103.014 28.6692 102.863 27.7376 102.863 26.6858C102.863 25.664 103.014 24.7024 103.374 23.861C103.735 23.0195 104.216 22.3284 104.787 21.7574C105.358 21.1864 106.109 20.7657 106.92 20.4351C107.762 20.1046 108.663 19.9844 109.655 19.9844C110.857 19.9844 111.849 20.1947 112.66 20.5854C113.501 20.9761 114.163 21.4869 114.643 22.1781C115.154 22.8392 115.515 23.5905 115.755 24.462C115.996 25.3335 116.116 26.235 116.116 27.1967V27.978H107.311V28.008H107.341Z" fill="white"/>
<path d="M127.055 23.8622C126.814 23.772 126.574 23.742 126.303 23.742C126.063 23.742 125.793 23.742 125.552 23.742C124.53 23.742 123.719 24.1026 123.178 24.8238C122.637 25.545 122.337 26.5367 122.337 27.7688V33.148H117.949V20.3462H122.006V22.6902H122.036C122.427 21.8487 122.908 21.2177 123.509 20.7369C124.11 20.256 124.861 20.0156 125.853 20.0156C126.123 20.0156 126.364 20.0156 126.634 20.0457C126.874 20.0757 127.115 20.1358 127.355 20.1358L127.055 23.8622Z" fill="white"/>
<path d="M121.586 44.8661H125.162V43.9044H122.788V42.1915H124.921V41.2299H122.788V39.7574H125.132V38.7957H121.555V44.8059H121.586V44.8661ZM115.756 44.8661H116.958V42.5822H117.469C118.13 42.5822 118.701 42.4319 119.121 42.1314C119.572 41.8609 119.782 41.3501 119.782 40.6589C119.782 39.9377 119.512 39.4568 119.031 39.1864C118.55 38.946 117.949 38.8258 117.288 38.8258H115.756V44.8661ZM116.928 39.7874H117.378C117.709 39.7874 117.979 39.8776 118.16 39.9978C118.28 40.0879 118.37 40.148 118.4 40.2682C118.43 40.3884 118.49 40.5387 118.49 40.719C118.49 41.0796 118.37 41.32 118.16 41.4402C117.919 41.5604 117.679 41.6506 117.378 41.6506H116.928V39.7874ZM109.505 40.3283C109.775 39.8776 110.166 39.6672 110.767 39.6672C111.368 39.6672 111.789 39.9076 112.089 40.3283C112.36 40.7791 112.48 41.2299 112.48 41.8008C112.48 42.3718 112.36 42.8827 112.089 43.3034C111.969 43.5137 111.759 43.664 111.578 43.8143C111.338 43.9345 111.098 44.0246 110.797 44.0246C110.196 44.0246 109.775 43.7842 109.475 43.3635C109.204 42.9127 109.084 42.462 109.084 41.8609C109.084 41.29 109.204 40.7791 109.505 40.3283ZM108.573 44.0547C109.054 44.6557 109.805 44.9261 110.767 44.9261C111.729 44.9261 112.48 44.5956 112.961 44.0547C113.442 43.5137 113.712 42.7324 113.712 41.8008C113.712 40.8392 113.472 40.148 112.961 39.577C112.45 39.0361 111.729 38.7056 110.767 38.7056C109.805 38.7056 109.054 38.976 108.573 39.577C108.063 40.118 107.822 40.8993 107.822 41.8309C107.822 42.7625 108.063 43.5137 108.573 44.0547ZM101.842 44.8661H103.074V42.3718H103.465C103.705 42.3718 103.915 42.4018 104.006 42.492C104.096 42.5822 104.216 42.7625 104.276 42.9728L104.997 44.836H106.35L105.388 42.492C105.358 42.3417 105.268 42.2215 105.148 42.1013C105.027 41.9811 104.907 41.891 104.757 41.891C105.148 41.8609 105.478 41.6806 105.658 41.4102C105.899 41.1397 105.989 40.8692 105.989 40.5086C105.989 40.0579 105.899 39.7574 105.749 39.547C105.598 39.3066 105.358 39.1563 105.087 39.0662C104.817 38.976 104.486 38.9159 104.186 38.9159C103.855 38.9159 103.525 38.9159 103.194 38.9159H101.872V44.8661H101.842ZM103.044 39.7874H103.435C103.585 39.7874 103.765 39.7874 103.915 39.7874C104.066 39.7874 104.186 39.8175 104.306 39.9076C104.426 39.9377 104.547 40.0278 104.637 40.148C104.727 40.2682 104.757 40.3884 104.757 40.5988C104.757 40.749 104.727 40.9293 104.637 41.0496C104.547 41.1698 104.426 41.2599 104.306 41.29C104.186 41.32 104.066 41.3801 103.915 41.4102C103.765 41.4402 103.585 41.4402 103.435 41.4402H103.044V39.7874ZM94.6296 42.6723C94.6597 44.2049 95.4711 44.9562 97.0938 44.9261C98.7166 44.9562 99.4979 44.1749 99.558 42.6723V38.8258H98.356V42.3117C98.356 42.8226 98.2658 43.2132 98.0855 43.5438C97.8752 43.8744 97.5747 44.0246 97.0938 44.0246C96.6431 44.0246 96.3426 43.8744 96.1322 43.5438C95.9218 43.2132 95.8617 42.8226 95.8617 42.3117V38.8258H94.6597V42.6723H94.6296ZM88.95 44.8661H92.5261V43.9044H90.152V42.1915H92.2857V41.2299H90.152V39.7574H92.496V38.7957H88.9199V44.8059H88.95V44.8661ZM81.5273 46.9997H82.4289V38.375H81.5273V46.9997Z" fill="white"/>
<path d="M101.751 30.2313C101.511 30.2614 101.27 30.3215 101.09 30.3515C100.85 30.3816 100.639 30.4417 100.429 30.4417C99.7077 30.4417 99.2269 30.2313 99.0166 29.8407C98.7761 29.45 98.6559 28.849 98.6559 28.0676V23.4999H101.781V20.1041H98.6559V15.957L94.2685 17.3093V20.1341C94.2685 20.1341 91.9245 20.1341 91.8043 20.1341C90.8426 20.1341 90.0613 20.3745 89.4603 20.8554C88.8593 21.3362 88.3784 21.9673 88.0479 22.8087H87.9577V20.4647H83.9609V33.1763H88.3484V27.8272C88.3484 26.5651 88.6189 25.6035 89.1898 24.8822C89.7608 24.161 90.5421 23.8004 91.5639 23.8004C91.654 23.8004 91.7141 23.8004 91.8043 23.8004H94.1783L94.1483 28.6086C94.1483 29.3899 94.2384 30.0811 94.3586 30.6821C94.5089 31.2831 94.7493 31.794 95.1099 32.1847C95.4705 32.5753 95.9814 32.9059 96.6125 33.1463C97.2435 33.3567 98.085 33.4768 99.0767 33.4768C99.6176 33.4768 100.159 33.4468 100.579 33.3867C101.03 33.3566 101.451 33.2665 101.901 33.2364L101.751 30.2313Z" fill="white"/>
<path d="M174.415 17.8804H157.467L155.694 25.844H171.771L170.178 33.1464H154.161L152.298 41.8613H169.938L169.307 45.0166C175.918 40.6292 180.336 33.0863 180.336 24.5217C180.336 19.3229 178.713 14.5448 175.978 10.578L174.415 17.8804ZM131.172 24.5217C131.172 32.7558 135.259 40.0582 141.479 44.5058L148.782 10.578H175.888C171.44 4.20716 164.078 0 155.724 0C142.141 0 131.172 10.9687 131.172 24.5217Z" fill="white"/>
</svg>
