<svg width="80" height="72" viewBox="0 0 80 72" fill="none" xmlns="http://www.w3.org/2000/svg">
<path d="M46.7463 18.5529C44.8339 18.7046 42.6247 18.8563 40.4155 19.1531C37.0325 19.5883 33.6495 20.1819 30.8557 21.5029C25.413 23.7211 21.7332 28.4318 21.7332 35.3584C21.7332 44.0569 27.3254 48.4686 34.3837 48.4686C36.7424 48.4686 38.6526 48.1808 40.4155 47.7367C43.2161 46.853 45.5703 45.2307 48.3642 42.2895C49.9865 44.4987 50.4239 45.5319 53.2222 47.8884C53.9564 48.1852 54.6905 48.1852 55.2797 47.7411C57.0448 46.2706 60.131 43.6173 61.7533 42.1445C62.4852 41.5487 62.3402 40.6717 61.9006 39.9308C60.2783 37.8689 58.6649 36.0971 58.6649 32.125V18.863C58.6649 13.2552 59.1 8.10265 54.9896 4.27559C51.6021 1.17155 46.3067 0 42.1918 0C41.6027 0 41.0158 0 40.4244 0C32.9221 0.439609 24.9801 3.67531 23.2105 12.9674C22.9204 14.1389 23.8063 14.5874 24.3932 14.737L32.6297 15.7724C33.5134 15.6162 33.953 14.8842 34.0981 14.1434C34.8412 10.9099 37.4855 9.28759 40.4267 8.99079C40.5762 8.99079 40.7234 8.99079 41.018 8.99079C42.7809 8.99079 44.6911 9.73166 45.7243 11.1933C46.8914 12.9674 46.753 15.3283 46.753 17.3858L46.7463 18.5529ZM45.1285 36.0881C44.0997 38.1523 42.3324 39.4778 40.42 39.9219C40.1276 39.9219 39.6903 40.0736 39.2462 40.0736C36.0105 40.0736 34.0914 37.5676 34.0914 33.8812C34.0914 29.1727 36.8897 26.9545 40.42 25.9258C42.3324 25.4862 44.5416 25.3344 46.7486 25.3344V27.104C46.7463 30.496 46.8847 33.1448 45.1285 36.0881ZM79.0364 56.549V57.0287C78.9583 59.9096 77.4386 65.4371 73.8414 68.4787C73.1229 69.0365 72.4021 68.7174 72.719 67.9118C73.7656 65.3568 76.1578 59.4254 75.0398 58.0664C74.2476 57.0287 70.965 57.1068 68.1689 57.3478C66.8925 57.5085 65.77 57.5821 64.8908 57.7562C64.0942 57.8298 63.929 57.1158 64.7324 56.5579C65.7723 55.8371 66.8947 55.2792 68.1711 54.8708C72.7212 53.5141 78.0032 54.313 78.724 55.1967C78.8802 55.4243 79.0364 55.904 79.0364 56.549ZM71.4448 62.1501C70.4049 62.9467 69.2914 63.672 68.1689 64.3213C59.7762 69.3668 48.9087 72 39.4805 72C24.2905 72 10.705 66.3944 0.397646 57.0287C-0.486036 56.3057 0.234745 55.2681 1.27463 55.8259C12.3831 62.3107 26.1293 66.2382 40.3552 66.2382C49.3103 66.2382 58.9706 64.5556 68.1667 60.9473C68.8027 60.7152 69.5234 60.3849 70.1639 60.1529C71.6032 59.5035 72.8841 61.1169 71.4448 62.1501Z" fill="white"/>
</svg>
