<svg width="64" height="64" viewBox="0 0 64 64" fill="none" xmlns="http://www.w3.org/2000/svg">
<path d="M32 0H5.9661C2.67281 0.00433898 0.00433898 2.67281 0 5.9661V58.0339C0.00433898 61.3272 2.67281 63.9957 5.9661 64H32C35.2933 63.9957 37.9618 61.3272 37.9661 58.0339V5.9661C37.9618 2.67281 35.2933 0.00433898 32 0ZM34.7119 58.0339C34.7097 59.5308 33.4969 60.7436 32 60.7458H5.9661C4.46915 60.7436 3.25641 59.5308 3.25424 58.0339V5.9661C3.25641 4.46915 4.46915 3.25641 5.9661 3.25424H32C33.4969 3.25641 34.7097 4.46915 34.7119 5.9661V58.0339ZM23.322 53.1525H14.6441C13.7459 53.1525 13.0169 53.8815 13.0169 54.7797C13.0169 55.6778 13.7459 56.4068 14.6441 56.4068H23.322C24.2202 56.4068 24.9492 55.6778 24.9492 54.7797C24.9492 53.8815 24.2202 53.1525 23.322 53.1525Z" fill="#F9CD56"/>
</svg>
