<svg width="64" height="64" viewBox="0 0 64 64" fill="none" xmlns="http://www.w3.org/2000/svg">
<g clip-path="url(#clip0_189_933)">
<path d="M45 42.9082C44.1875 42.9082 43.5312 43.5645 43.5312 44.375C43.5312 45.1855 44.1875 45.8437 45 45.8437C45.8086 45.8437 46.4668 45.1855 46.4668 44.375C46.4668 43.5645 45.8086 42.9082 45 42.9082Z" fill="#F9CD56"/>
<path d="M59.4414 38.2754H58.9688V31.3632C58.9688 29.6054 58.375 27.9882 57.3848 26.6914L64 22.4297L63.4785 21.5781L50.332 0.146484L22.6173 17.1426H11.75C5.43363 17.1426 0.30075 22.127 0.025375 28.3711L0.023375 28.3847L0 30.4395V34.9044V52.1036C0 58.5939 5.25975 63.8516 11.75 63.8536H51.5312C55.7949 63.8516 59.25 60.3966 59.25 56.1329V50.4746H59.4414C60.6504 50.4726 61.6289 49.4961 61.6309 48.2871V40.4629C61.6289 39.2539 60.6524 38.2754 59.4414 38.2754ZM49.668 2.89448L61.254 21.7695L55.7814 25.123C55.2189 24.7129 54.5959 24.3789 53.9318 24.1307L55.4963 23.1717C54.9142 21.3475 55.4357 19.3221 56.8595 18.0272L51.0235 8.50961C49.2188 9.18149 47.1836 8.73223 45.8184 7.38661L19.3086 23.6426H15.8476L49.668 2.89448ZM49.1875 18.3281C48.3242 18.8516 47.2031 18.5801 46.6719 17.7167C46.1484 16.8651 46.4199 15.7324 47.2735 15.2109C48.1349 14.6776 49.2696 14.9491 49.7891 15.8125C50.3204 16.6739 50.0508 17.7989 49.1875 18.3281ZM37.6954 19.2422L37.4943 19.1621C37.4943 19.1621 36.8029 19.0801 36.2911 19.2325C35.9806 19.3224 35.6681 19.4415 35.3595 19.5919L34.8068 18.6992L33.5431 19.4727L34.1056 20.3946C33.9748 20.504 33.8439 20.6154 33.7345 20.7364C33.4728 21.0274 33.2735 21.338 33.1427 21.6777C33.0119 22.0195 32.963 22.3614 32.9924 22.7207C33.0177 23.0294 33.1271 23.336 33.2912 23.6426H29.2932C29.3011 21.0625 30.5881 18.545 32.9515 17.0957C36.5824 14.8691 41.3363 16.002 43.5511 19.6329C44.3226 20.8867 44.682 22.2735 44.6859 23.6426H40.9124C40.8519 23.4922 40.7874 23.3437 40.6956 23.1934C40.3128 22.5605 39.8324 22.1992 39.2503 22.1094C38.6683 22.0097 37.9964 22.1601 37.2131 22.541L36.1604 23.0722C35.7795 23.252 35.4787 23.3242 35.2482 23.2832C35.0177 23.2422 34.8284 23.1016 34.6878 22.8614C34.5159 22.5919 34.4866 22.3009 34.5979 22.0097C34.6975 21.709 34.9767 21.4277 35.4084 21.1562C35.7501 20.9472 36.09 20.7949 36.4514 20.6855C36.803 20.5761 37.3049 20.6151 37.3049 20.6151C37.4142 20.6054 37.5041 20.5252 37.5256 20.4237L37.7561 19.4609L37.6954 19.2422ZM57.2461 56.1329C57.2441 57.713 56.6075 59.1367 55.5723 60.1739C54.5351 61.209 53.1133 61.8457 51.5312 61.8477H11.75C9.05663 61.8457 6.627 60.7579 4.85938 58.9942C3.09375 57.2266 2.00775 54.797 2.00588 52.1036V34.9042V30.4589L2.03125 28.453C2.25975 23.2772 6.5195 19.1464 11.75 19.1482H19.3476L12.0273 23.6424L9.0995 23.6444V25.6502L51.2694 25.6482C52.8416 25.6561 54.2557 26.2909 55.2889 27.3221C56.324 28.3592 56.9627 29.7831 56.9627 31.3631V38.2752H44.2949C42.6094 38.2732 41.082 38.9589 39.9804 40.0624L39.9784 40.0644C38.8768 41.166 38.1932 42.6914 38.1932 44.3749C38.1932 46.0584 38.8769 47.5839 39.9765 48.6874L39.9844 48.6912L39.9805 48.6892C41.0821 49.7909 42.6094 50.4764 44.295 50.4744H57.2461V56.1329ZM59.625 48.2871C59.625 48.3847 59.543 48.4687 59.4414 48.4687H44.2949C43.1523 48.4667 42.1543 48.0176 41.4004 47.2715H41.3984C40.6523 46.5176 40.2011 45.5156 40.1991 44.375C40.2011 43.2364 40.6523 42.2324 41.3984 41.4805C42.1523 40.7344 43.1523 40.2832 44.2949 40.2812H59.4414C59.543 40.2812 59.625 40.3652 59.625 40.4629V48.2871Z" fill="#F9CD56"/>
</g>
<defs>
<clipPath id="clip0_189_933">
<rect width="64" height="64" fill="white"/>
</clipPath>
</defs>
</svg>
