<svg width="64" height="64" viewBox="0 0 64 64" fill="none" xmlns="http://www.w3.org/2000/svg">
<path d="M17.0959 32.5026C16.1586 32.5026 15.7121 32.949 15.623 33.6632C15.3551 35.8057 14.8641 39.1536 9.55237 39.1536C5.2225 39.1536 2.946 37.0111 2.946 32.3242V18.4867C2.946 13.8445 5.22237 11.702 9.37362 11.702C14.6855 11.702 15.5335 15.1836 15.6228 17.1031C15.6674 17.7281 16.069 18.219 17.0956 18.219C18.1224 18.219 18.5686 17.9066 18.5686 16.4336C18.5686 12.4162 15.2209 8.97925 9.3735 8.97925C4.28512 8.97925 0 11.5681 0 18.4867V32.3241C0 39.2875 4.19587 41.8764 9.23987 41.8764C15.1319 41.8764 18.5689 38.3947 18.5689 34.3327C18.5689 32.8599 18.1225 32.5026 17.0959 32.5026Z" fill="#F9CD56"/>
<path d="M32.6291 8.97925C27.4067 8.97925 23.3447 11.5682 23.3447 18.4869V32.3242C23.3447 39.2876 27.4067 41.8766 32.6291 41.8766C37.8515 41.8766 41.9135 39.2876 41.9135 32.3242V18.4867C41.9135 11.5681 37.8515 8.97925 32.6291 8.97925ZM38.9676 32.3241C38.9676 37.011 36.6018 39.1535 32.6292 39.1535C28.6566 39.1535 26.2909 37.011 26.2909 32.3241V18.4867C26.2909 13.8445 28.6566 11.702 32.6292 11.702C36.6018 11.702 38.9676 13.8445 38.9676 18.4867V32.3241Z" fill="#F9CD56"/>
<path d="M62.9288 52.298H48.6897V49.5305C48.6897 43.5937 63.6875 40.5584 63.6875 30.9616C63.6875 26.1409 59.9379 22.3914 54.8048 22.3914C50.0733 22.3914 46.413 25.516 46.4132 29.8011C46.4132 31.1402 46.8595 31.6312 47.7523 31.6312C48.7789 31.6312 49.3145 31.0062 49.3145 30.426C49.3145 26.8996 51.6355 25.1589 54.7155 25.1589C58.8222 25.1589 60.7415 28.2389 60.7415 31.0509C60.7415 38.8625 45.6543 42.1209 45.6543 49.5305V53.8604C45.6543 54.5746 46.4578 55.0209 47.038 55.0209H62.9288C63.509 55.0209 64 54.3512 64 53.6371C64 52.923 63.509 52.298 62.9288 52.298Z" fill="#F9CD56"/>
</svg>
