<svg width="64" height="64" viewBox="0 0 64 64" fill="none" xmlns="http://www.w3.org/2000/svg">
<g clip-path="url(#clip0_189_920)">
<path d="M15.0598 21.2789C14.8777 20.232 13.9743 19.4722 12.9117 19.4722C11.849 19.4722 10.9457 20.232 10.7637 21.2789L7.01517 42.8331C6.9191 43.3861 7.28928 43.9122 7.84225 44.0084C8.39535 44.1044 8.92135 43.7343 9.01755 43.1814L9.89341 38.1449C9.92023 38.1471 9.94706 38.149 9.97443 38.149H15.8488C15.8762 38.149 15.903 38.1471 15.9298 38.1449L16.8057 43.1814C16.8916 43.6754 17.3208 44.0236 17.8056 44.0236C17.8634 44.0236 17.922 44.0186 17.981 44.0084C18.5339 43.9122 18.9041 43.3861 18.808 42.8331L15.0598 21.2789ZM10.2462 36.1165L12.7661 21.6271C12.7784 21.5563 12.8397 21.5048 12.9117 21.5048C12.9838 21.5048 13.0451 21.5563 13.0574 21.6273L15.5772 36.1165H10.2462Z" fill="#F9CD56"/>
<path d="M30.5349 19.4722C29.9737 19.4722 29.5187 19.9272 29.5187 20.4884V38.6013C29.5187 40.4703 27.9981 41.9909 26.1291 41.9909C24.26 41.9909 22.7395 40.4703 22.7395 38.6013V20.4884C22.7395 19.9272 22.2845 19.4722 21.7233 19.4722C21.162 19.4722 20.707 19.9272 20.707 20.4884V38.6013C20.707 41.591 23.1393 44.0233 26.1291 44.0233C29.1188 44.0233 31.5512 41.591 31.5512 38.6013V20.4884C31.5512 19.9272 31.0962 19.4722 30.5349 19.4722Z" fill="#F9CD56"/>
<path d="M44.2423 19.4722H34.4515C33.8903 19.4722 33.4353 19.9272 33.4353 20.4884C33.4353 21.0496 33.8903 21.5046 34.4515 21.5046H38.3307V43.0072C38.3307 43.5685 38.7857 44.0235 39.3469 44.0235C39.9081 44.0235 40.3631 43.5685 40.3631 43.0072V21.5046H44.2423C44.8035 21.5046 45.2585 21.0496 45.2585 20.4884C45.2585 19.9272 44.8037 19.4722 44.2423 19.4722Z" fill="#F9CD56"/>
<path d="M51.5852 19.4722C48.5954 19.4722 46.1631 21.9045 46.1631 24.8942V38.6013C46.1631 41.591 48.5954 44.0233 51.5852 44.0233C54.5749 44.0233 57.0072 41.591 57.0072 38.6013V24.8944C57.0072 21.9046 54.5749 19.4722 51.5852 19.4722ZM54.9748 38.6014C54.9748 40.4705 53.4542 41.991 51.5852 41.991C49.7161 41.991 48.1955 40.4705 48.1955 38.6014V24.8944C48.1955 23.0253 49.7161 21.5048 51.5852 21.5048C53.4542 21.5048 54.9748 23.0253 54.9748 24.8944V38.6014Z" fill="#F9CD56"/>
<rect x="1.2" y="1.2" width="61.6" height="61.6" rx="6.8" stroke="#F9CD56" stroke-width="2.4"/>
</g>
<defs>
<clipPath id="clip0_189_920">
<rect width="64" height="64" fill="white"/>
</clipPath>
</defs>
</svg>
