<svg width="64" height="64" viewBox="0 0 64 64" fill="none" xmlns="http://www.w3.org/2000/svg">
<path d="M59.1099 5.68606C58.9659 5.13406 58.5279 4.71406 57.9799 4.59406L57.9699 4.59206C57.8779 4.57206 57.7719 4.56006 57.6639 4.56006C57.1879 4.56006 56.7619 4.77806 56.4839 5.12206L56.4819 5.12406C53.0859 9.13406 48.6359 12.1541 43.5579 13.7641L43.3599 13.8181C39.9739 14.9221 36.0359 15.7101 31.9659 16.0241L31.7899 16.0341C27.3279 16.2001 23.1399 17.1941 19.3179 18.8681L19.5379 18.7821C12.9379 22.3581 8.53391 29.2321 8.53391 37.1341C8.53391 37.2581 8.53591 37.3821 8.53791 37.5061V37.4881C8.55591 38.0941 8.59791 38.6921 8.66591 39.2881C8.97391 41.6841 9.63391 43.8581 10.5979 45.8581L10.5419 45.7301C7.46391 49.6941 4.80591 54.2201 2.76991 59.0701L2.62391 59.4641C2.54791 59.6381 2.50391 59.8401 2.50391 60.0541C2.50391 60.8821 3.17591 61.5541 4.00391 61.5541C4.61991 61.5541 5.14791 61.1841 5.37991 60.6541L5.38391 60.6441C7.31191 56.0301 9.56791 52.0561 12.2339 48.3981L12.1159 48.5681C14.3899 52.0781 17.5339 54.8481 21.2499 56.6101L21.3839 56.6681C24.2259 57.9661 27.5499 58.7241 31.0499 58.7241C31.1039 58.7241 31.1559 58.7241 31.2079 58.7241H31.1999C34.9779 58.7061 38.5719 57.9401 41.8479 56.5621L41.6639 56.6301C52.1879 51.8601 59.6679 42.0181 61.0199 30.3101L61.0339 30.1561C61.3279 27.8961 61.4959 25.2841 61.4959 22.6321C61.4959 16.5961 60.6239 10.7621 59.0019 5.25206L59.1099 5.68606ZM58.0619 29.7101C56.8539 40.5041 50.0799 49.4761 40.7139 53.7701L40.5259 53.8461C37.8579 55.0321 34.7439 55.7241 31.4699 55.7241C28.2719 55.7241 25.2279 55.0661 22.4679 53.8761L22.6159 53.9321C18.9959 52.2261 16.0759 49.5361 14.1319 46.2041L14.0839 46.1141C20.7179 38.4901 29.3439 34.6921 41.6859 33.4901C42.4459 33.4101 43.0339 32.7741 43.0339 31.9981C43.0339 31.1701 42.3619 30.4981 41.5339 30.4981C41.4859 30.4981 41.4379 30.5001 41.3899 30.5041H41.3959C30.1179 30.9221 20.0339 35.7001 12.7099 43.1901L12.7019 43.1981C12.2139 41.9641 11.8399 40.5261 11.6499 39.0321L11.6399 38.9421C11.5799 38.4301 11.5439 37.9181 11.5299 37.4061C11.5279 37.3081 11.5259 37.1901 11.5259 37.0741C11.5259 30.3581 15.2639 24.5161 20.7719 21.5141L20.8639 21.4681C24.1639 20.0521 27.9939 19.1641 32.0139 19.0181L32.0699 19.0161C36.5639 18.6701 40.7299 17.8321 44.6959 16.5521L44.3119 16.6601C49.2079 15.0601 53.4059 12.4961 56.8699 9.17206L56.8579 9.18206C57.9039 13.2221 58.5039 17.8581 58.5039 22.6361C58.5039 25.1301 58.3399 27.5861 58.0239 29.9921L58.0539 29.7081L58.0619 29.7101Z" fill="#F9CD56"/>
</svg>
